<?xml version="1.0" encoding="UTF-8"?>
<svg width="255px" height="45px" viewBox="0 0 255 45" version="1.1" xmlns="http://www.w3.org/2000/svg" xmlns:xlink="http://www.w3.org/1999/xlink">
    <title>cloud intel_AI_Logo</title>
    <g id="new_UI_2025" stroke="none" stroke-width="1" fill="none" fill-rule="evenodd">
        <g id="01_Upload-inventory-Copy" transform="translate(-12.000000, -9.000000)" fill="#FBFBFB" fill-rule="nonzero">
            <g id="cloud-intel_AI_Logo" transform="translate(12.000000, 9.000000)">
                <path d="M82.777143,35.8396947 C85.5719656,35.8396947 88.1509718,35.2311805 90.5141614,34.0141523 L90.5141614,34.0141523 L90.5141614,31.1062088 C87.9243645,32.4955596 85.4964298,33.190235 83.2303574,33.190235 C80.5973972,33.190235 78.5201642,32.3097743 76.9986584,30.548853 C75.4771527,28.7879317 74.7163998,26.3834933 74.7163998,23.3355378 C74.7163998,20.1367999 75.428594,17.6596629 76.8529823,15.9041267 C78.2773706,14.1485904 80.2898587,13.2708223 82.8904466,13.2708223 C84.6709321,13.2708223 87.2013795,13.8362558 90.4817891,14.9671227 L90.4817891,14.9671227 L90.4817891,11.7845401 C87.6006398,11.0844796 85.0863786,10.7344494 82.9390053,10.7344494 C79.1837996,10.7344494 76.2729757,11.8330058 74.2065335,14.0301187 C72.1400913,16.2272315 71.1068702,19.3182677 71.1068702,23.3032273 C71.1068702,27.298957 72.1212074,30.3873006 74.1498817,32.5682582 C76.1785561,34.7492158 79.0543098,35.8396947 82.777143,35.8396947 Z M98.7367669,35.2419506 L98.7367669,9.73282443 L95.5480795,9.73282443 L95.5480795,35.2419506 L98.7367669,35.2419506 Z M112.009477,35.6458317 C114.653228,35.6458317 116.730461,34.8272995 118.241176,33.190235 C119.751891,31.5531706 120.507248,29.3022069 120.507248,26.4373441 C120.507248,23.6371023 119.754588,21.4157566 118.249269,19.773307 C116.743949,18.1308575 114.701786,17.3096327 112.12278,17.3096327 C109.543774,17.3096327 107.501611,18.1308575 105.996292,19.773307 C104.490972,21.4157566 103.738312,23.6478724 103.738312,26.4696546 C103.738312,29.2591263 104.488274,31.4858571 105.988199,33.1498469 C107.488123,34.8138368 109.495215,35.6458317 112.009477,35.6458317 Z M112.058035,33.254856 C108.777626,33.254856 107.137421,30.9931221 107.137421,26.4696546 C107.137421,21.9569571 108.799207,19.7006084 112.12278,19.7006084 C115.457144,19.7006084 117.124326,21.946187 117.124326,26.4373441 C117.124326,30.982352 115.435562,33.254856 112.058035,33.254856 Z M130.316104,35.6458317 C132.733248,35.6458317 134.788899,34.4126483 136.483059,31.9462814 L136.483059,31.9462814 L136.483059,35.2419506 L139.671746,35.2419506 L139.671746,17.6973585 L136.483059,17.6973585 L136.483059,29.0706485 C134.756526,31.6231765 132.922087,32.8994407 130.979739,32.8994407 C130.084102,32.8994407 129.444746,32.6221091 129.061672,32.0674458 C128.678597,31.5127825 128.48706,30.578471 128.48706,29.2645114 L128.48706,29.2645114 L128.48706,17.6973585 L125.298372,17.6973585 L125.298372,30.2984468 C125.298372,31.9355113 125.751587,33.2360082 126.658016,34.1999376 C127.564445,35.163867 128.783807,35.6458317 130.316104,35.6458317 Z M151.487694,35.6458317 C154.099073,35.6458317 156.052212,34.4126483 157.347111,31.9462814 L157.347111,31.9462814 L157.347111,35.2419506 L160.551984,35.2419506 L160.551984,9.73282443 L157.347111,9.73282443 L157.347111,19.7006084 C155.976677,18.1066246 154.250144,17.3096327 152.167516,17.3096327 C149.923025,17.3096327 148.112865,18.198171 146.737036,19.9752475 C145.361206,21.7523241 144.673291,24.1002191 144.673291,27.0189328 C144.673291,29.6899327 145.280274,31.7954992 146.494242,33.3356322 C147.70821,34.8757653 149.372693,35.6458317 151.487694,35.6458317 Z M152.15133,32.850975 C149.432043,32.850975 148.0724,30.7992593 148.0724,26.6958279 C148.0724,22.0323482 149.5993,19.7006084 152.653103,19.7006084 C154.131446,19.7006084 155.696115,20.4275943 157.347111,21.881566 L157.347111,21.881566 L157.347111,29.9591868 C155.652952,31.8870456 153.921025,32.850975 152.15133,32.850975 Z M178.992894,35.2419506 L178.992894,11.3321933 L175.593786,11.3321933 L175.593786,35.2419506 L178.992894,35.2419506 Z M188.445653,35.2419506 L188.445653,23.8848159 C190.172184,21.3322878 192.012019,20.0560237 193.965158,20.0560237 C194.850005,20.0560237 195.483965,20.3333553 195.86704,20.8880186 C196.250114,21.4426819 196.441652,22.3716083 196.441652,23.6747978 L196.441652,23.6747978 L196.441652,35.2419506 L199.630338,35.2419506 L199.630338,22.6408624 C199.630338,21.0145681 199.177124,19.7194562 198.270695,18.7555268 C197.364267,17.7915974 196.150299,17.3096327 194.628793,17.3096327 C192.190068,17.3096327 190.129022,18.537431 188.445653,20.9930277 L188.445653,20.9930277 L188.445653,17.6973585 L185.256965,17.6973585 L185.256965,35.2419506 L188.445653,35.2419506 Z M211.106377,35.6458317 C211.829362,35.6458317 212.681836,35.5112046 213.663801,35.2419506 L213.663801,35.2419506 L213.663801,33.0448378 C213.059516,33.18485 212.546951,33.254856 212.12611,33.254856 C210.140598,33.254856 209.147843,32.1078339 209.147843,29.8137896 L209.147843,29.8137896 L209.147843,20.0883342 L213.744732,20.0883342 L213.744732,17.6973585 L209.147843,17.6973585 L209.147843,14.2078263 L205.959155,14.5147759 L205.959155,17.6973585 L203.757828,17.6973585 L203.757828,20.0883342 L205.959155,20.0883342 L205.959155,30.3953782 C205.959155,32.0432129 206.412369,33.3302471 207.318798,34.256481 C208.225227,35.1827148 209.487754,35.6458317 211.106377,35.6458317 Z M225.625427,35.6458317 C227.146931,35.6458317 228.975976,35.3227268 231.112559,34.6765172 L231.112559,34.6765172 L231.112559,32.1562996 C229.181002,32.8671302 227.551587,33.2225455 226.224317,33.2225455 C222.598601,33.2225455 220.553741,31.1385193 220.089734,26.9704671 L220.089734,26.9704671 L231.177304,26.9704671 L231.19349,25.9849973 C231.19349,23.2062958 230.613483,21.0630338 229.45347,19.5552112 C228.293457,18.0473886 226.650554,17.2934774 224.524763,17.2934774 C222.280272,17.2934774 220.437738,18.1443201 218.997165,19.8460056 C217.55659,21.547691 216.836303,23.7286486 216.836303,26.3888784 C216.836303,29.1244993 217.653708,31.35123 219.288517,33.0690706 C220.923326,34.7869114 223.035629,35.6458317 225.625427,35.6458317 Z M227.988615,24.5794913 L220.235411,24.5794913 C220.515972,21.3161326 221.881012,19.6844532 224.330528,19.6844532 C226.769253,19.6844532 227.988615,21.3161326 227.988615,24.5794913 L227.988615,24.5794913 Z M239.885496,35.2419506 L239.885496,9.73282443 L236.696808,9.73282443 L236.696808,35.2419506 L239.885496,35.2419506 Z" id="CloudsIntel"></path>
                <g id="AI" transform="translate(242.862595, 4.809160)">
                    <path d="M6.07733808,8.24427481 L5.48030579,6.28990994 L2.47824722,6.28990994 L1.88121494,8.24427481 L0,8.24427481 L2.90630811,0 L5.04098015,0 L7.95855301,8.24427481 L6.07733808,8.24427481 Z M5.06350967,4.82975227 C4.51153642,3.05884311 4.20081679,2.05732471 4.13135077,1.82519708 C4.06188475,1.59306945 4.01213206,1.40961374 3.9820927,1.27482996 C3.85818033,1.75406119 3.50334039,2.9390353 2.91757287,4.82975227 L5.06350967,4.82975227 Z" id="Shape"></path>
                    <polygon id="Path" points="9.81884768 8.24427481 9.81884768 0.0336959461 11.5648855 0.0336959461 11.5648855 8.24427481"></polygon>
                </g>
                <path d="M40.5916351,43.102116 C40.3110534,43.7242526 39.6807724,44.1582659 38.9488705,44.1582659 C38.2173409,44.1582659 37.5870614,43.7242526 37.3064802,43.102116 L24.0754463,43.102116 C23.9080691,44.1764118 22.9706809,45 21.8405098,45 C20.592278,45 19.579047,43.9953254 19.579047,42.7584617 C19.579047,41.5212286 20.592278,40.5169244 21.8405098,40.5169244 C22.3452573,40.5169244 22.8118965,40.6813455 23.1884955,40.9590832 C24.5323718,40.1743799 26.3189757,39.1111938 27.7106743,38.2128016 C27.9467955,38.0602305 28.1713355,37.9132155 28.3801834,37.7743436 C28.2613758,37.5362301 28.1944993,37.2688605 28.1944993,36.9855648 C28.1944993,36.365652 28.514683,35.8194317 28.9996292,35.4998488 C27.945301,33.8385987 26.3533481,31.2600703 25.3236784,29.2718295 C25.1589158,29.3140485 24.9859344,29.3366371 24.8073486,29.3366371 C23.6760569,29.3366371 22.7577231,28.426392 22.7577231,27.3050684 C22.7577231,26.265213 23.5475351,25.4064442 24.5648755,25.2875745 C24.7046059,24.7561667 24.9112124,24.1766167 25.1626522,23.5752209 C26.0331641,21.4947698 27.4472789,19.1351002 28.4354779,17.5860576 C28.0547689,17.1979636 27.8201419,16.6684082 27.8201419,16.0847864 C27.8201419,14.8960633 28.7937702,13.9310144 29.9930587,13.9310144 C30.3969317,13.9310144 30.7753991,14.0406277 31.0993188,14.2309724 C32.2761913,12.9167113 33.9981604,11.2828653 35.4455269,10.1852415 C35.670067,10.0148949 35.8886283,9.85713974 36.0974771,9.71530694 C36.0414359,9.52385219 36.0111731,9.32165864 36.0111731,9.11279925 C36.0111731,9.03910545 36.0149089,8.96652359 36.0223804,8.8950519 L31.0686831,8.8950519 C30.9173711,9.4249773 30.4257001,9.81381194 29.8428675,9.81381194 C29.1397333,9.81381194 28.5692301,9.24796484 28.5692301,8.55139588 C28.5692301,7.85445704 29.1397333,7.28898029 29.8428675,7.28898029 C30.4257001,7.28898029 30.9173711,7.6774446 31.0686831,8.20774079 L36.2121741,8.20774079 C36.4027166,7.80038999 36.7184173,7.46191889 37.10996,7.24046849 C36.7356021,6.6338865 36.2764363,5.95953629 35.8228733,5.47108649 C34.9400326,4.52121929 34.0478516,3.76465837 33.3626497,3.2369544 C33.0689917,3.44359214 32.7103268,3.56505678 32.3236395,3.56505678 C31.3309578,3.56505678 30.5250797,2.76627959 30.5250797,1.78234312 C30.5250797,0.798777089 31.3309578,0 32.3236395,0 C33.1814491,0 33.8999015,0.596953529 34.0788607,1.3942494 L34.1038929,1.40091507 C34.3489811,1.47016471 34.5925749,1.54348776 34.8346742,1.6219953 C35.2960824,1.77160392 35.7515144,1.93861769 36.1998464,2.12303633 C37.1114549,2.49853922 37.9928021,2.94625439 38.8337985,3.45914572 C39.7502644,4.0186971 40.6185344,4.65527447 41.4307641,5.35517639 C42.0352635,5.87547404 42.6083815,6.43132214 43.1508671,7.01494424 L43.1587089,7.02309149 C43.1841163,7.04382975 43.2069062,7.06827059 43.2255858,7.0953039 C46.9672941,11.1643636 48.5188961,15.8577818 48.8521562,16.983549 C50.7291749,17.0646498 61.9292638,18.0504377 62.283445,30.0320936 C62.6204424,41.4371655 50.0010085,43.0991549 50.0010085,43.0991549 C49.9860648,43.1010067 49.9711181,43.102116 49.9558019,43.102116 L40.5916351,43.102116 Z M45.5722337,37.4073577 C45.3794511,37.8624792 44.9258879,38.1820641 44.3972294,38.1820641 C44.3135406,38.1820641 44.2313465,38.1739171 44.1521411,38.1587341 C43.2909694,39.1108231 41.6874341,40.5139601 40.5176603,41.504192 C40.6641156,41.7619337 40.7474307,42.0592996 40.7474307,42.375922 C40.7474307,42.3888833 40.7470571,42.401844 40.7470571,42.4148053 L49.2638771,42.4148053 C49.5056024,42.0537448 50.1314003,41.0590691 50.4807258,39.9514463 C50.6103682,39.5392817 50.7052652,39.1104528 50.7202098,38.6956961 C50.1863207,38.5394216 49.755922,38.1442916 49.5545462,37.635474 C49.0408318,37.7254614 48.4714496,37.7432367 47.9147704,37.7173144 C46.9721513,37.6728761 46.0691359,37.5106766 45.5722337,37.4073577 Z M31.5562433,37.8669215 C31.2465205,38.4049943 30.6621939,38.7682768 29.9930581,38.7682768 C29.5350117,38.7682768 29.1169422,38.5983006 28.7993732,38.3183399 C28.5781962,38.4690595 28.3398326,38.6264448 28.0891401,38.7886444 C26.7396599,39.6603742 25.019932,40.6857861 23.6872641,41.4653067 C23.8849039,41.7419347 24.020898,42.0648528 24.0754451,42.4148035 L37.151057,42.4148035 C37.150684,42.4018424 37.150684,42.3888811 37.150684,42.3759201 C37.150684,42.0833684 37.2220433,41.8067406 37.3483235,41.5630707 C35.9827781,40.4587811 33.735512,38.7956804 31.5562433,37.8669215 Z M51.6426507,38.7208777 C51.5653133,38.7390233 51.486108,38.7519844 51.4054081,38.7597611 C51.3852333,39.2230296 51.2869737,39.6981483 51.1427601,40.1562324 C50.8621787,41.0461079 50.4157144,41.8682151 50.0996401,42.3885126 C50.6417487,42.2988955 52.2833922,41.9804216 54.1633994,41.1586847 C53.4031026,40.8361373 52.7836564,40.2843626 52.2979632,39.6814839 C52.0427874,39.3648616 51.8249725,39.0349077 51.6426507,38.7208777 Z M38.0548237,33.1298085 C36.3593804,33.9700612 33.4553078,35.4198586 31.6795381,36.365652 C31.7516448,36.5585879 31.7912476,36.7678178 31.7912476,36.9855652 C31.7912476,37.0644432 31.7863906,37.1422102 31.7763031,37.218496 C34.0329091,38.178361 36.3605011,39.891455 37.7734953,41.0272218 C38.0888227,40.7568892 38.4997937,40.5932084 38.9488728,40.5932084 C39.3729209,40.5932084 39.7625962,40.7391141 40.0700778,40.9824134 C41.172228,40.0514324 42.6588236,38.7542064 43.5166324,37.8313727 C43.2745331,37.601405 43.1235947,37.2781171 43.1235947,36.9196484 C43.1235947,36.8448442 43.129946,36.7715209 43.142649,36.7000495 C41.9908078,36.0175525 40.816925,34.9395553 39.6688199,33.6238134 C39.5350671,33.6608452 39.3938434,33.6804721 39.2485089,33.6804721 C38.7699138,33.6804721 38.3413825,33.4667983 38.0548237,33.1298085 Z M57.4631232,31.0719482 C55.8521157,33.100553 53.9904154,34.9354813 52.7713252,36.0682855 C52.9342193,36.3363963 53.0279955,36.6500561 53.0279955,36.9855646 C53.0279955,37.5825178 52.7309751,38.1113332 52.2762915,38.4349909 C52.4354495,38.7034721 52.6230019,38.9830628 52.8396958,39.252284 C53.3874084,39.9321887 54.1252887,40.5513616 55.0888299,40.7202267 C55.2606906,40.6320906 55.432925,40.5398815 55.6059065,40.442858 C55.6085218,40.4410065 55.6107633,40.4387849 55.6133786,40.4369329 C55.6133786,40.4369329 57.7881644,38.6408882 57.651049,31.1371242 C57.5864145,31.119349 57.523648,31.0975001 57.4631232,31.0719482 Z M5.88622952,35.7231497 C7.13446143,35.7231497 8.14769243,36.7274535 8.14769243,37.9646876 C8.14769243,39.2019217 7.13446143,40.2062255 5.88622952,40.2062255 C4.63837125,40.2062255 3.62476661,39.2019217 3.62476661,37.9646876 C3.62476661,36.7274535 4.63837125,35.7231497 5.88622952,35.7231497 Z M58.9571928,30.9201186 C58.776739,31.0434347 58.5690118,31.1304596 58.3448455,31.1700837 C58.419194,35.6116843 57.6895331,38.1531808 57.0330999,39.5296548 C58.6556892,38.3461166 60.1396693,36.6978286 60.9507772,34.4162961 C60.9821606,33.6338132 60.5289712,32.8120762 59.9909723,32.0955097 C59.6580858,31.6518681 59.287838,31.2489615 58.9571928,30.9201186 Z M16.775101,32.4239813 C18.3225949,32.4239813 19.5790461,33.6693624 19.5790461,35.2032216 C19.5790461,36.7367108 18.3225949,37.9820918 16.775101,37.9820918 C15.2276072,37.9820918 13.9715295,36.7367108 13.9715295,35.2032216 C13.9715295,33.6693624 15.2276072,32.4239813 16.775101,32.4239813 Z M45.2176755,27.5224438 C43.4082812,28.9274324 41.7345072,30.4657356 40.6671027,31.4896663 C40.7578899,31.6859354 40.8087009,31.904053 40.8087009,32.1340207 C40.8087009,32.5921048 40.607325,33.0038987 40.2875147,33.2875628 C41.3328761,34.4773967 42.3957972,35.4561487 43.4441476,36.0827276 C43.6772805,35.821653 44.0180131,35.6572319 44.3972276,35.6572319 C45.0323651,35.6572319 45.559903,36.1190191 45.6555472,36.7222671 C46.1102307,36.8189205 47.0083896,36.9863048 47.9472721,37.0303725 C48.4520198,37.0540731 48.9702167,37.0455551 49.4312521,36.9651967 C49.4402191,36.1816027 49.9602842,35.5187324 50.6761215,35.2891347 C50.5483468,34.4888765 50.1586713,33.708985 50.1145855,33.5741893 C49.9987661,33.2197946 48.2880052,29.8747072 47.1440104,27.834252 C46.9235801,27.9301646 46.679986,27.9834904 46.4240632,27.9834904 C45.960039,27.9834904 45.5367388,27.8087 45.2176755,27.5224438 Z M36.205824,28.9059542 C34.4222083,31.6807514 32.4880282,34.2278022 31.2872447,35.748701 C31.2973322,35.7586993 31.3070461,35.7690681 31.3167599,35.7798076 C33.1014961,34.8284592 36.0283591,33.3664414 37.7368785,32.5195228 C37.7051219,32.3962068 37.6879357,32.2669656 37.6879357,32.1340212 C37.6879357,31.8588746 37.760416,31.6003922 37.8878172,31.3763494 C37.3120835,30.5860895 36.749427,29.754354 36.205824,28.9059542 Z M51.8608411,24.2025372 C50.8315449,24.4958294 49.4772078,24.8994766 48.1142774,25.5919723 C48.1841425,25.7819457 48.2222509,25.9871023 48.2222509,26.2007759 C48.2222509,26.6825602 48.0290943,27.1195362 47.7156352,27.4406025 C48.8820465,29.5184596 50.6548273,32.9968619 50.7743825,33.3619955 C50.8218309,33.5067899 51.2286926,34.3474128 51.3646866,35.2080337 C51.7166276,35.2339564 52.0405478,35.3606046 52.3073055,35.5587252 C53.5036055,34.4477698 55.324582,32.6539469 56.9008434,30.6701509 C56.6579971,30.3975961 56.5104208,30.0391277 56.5104208,29.6473304 C56.5104208,29.2188718 56.6863912,28.8311483 56.9707088,28.5508174 C56.2787829,27.5157768 55.1863463,25.8948929 54.3229332,24.6761746 C54.0397362,24.8605931 53.7012452,24.9679856 53.337349,24.9679856 C52.7261227,24.9679856 52.1858822,24.665065 51.8608411,24.2025372 Z M28.9929047,17.9971106 C28.0215179,19.5213415 26.6503681,21.8139835 25.8033937,23.8385152 C25.5855789,24.3588127 25.4025099,24.860594 25.27212,25.3257142 C26.1799927,25.5345737 26.8573482,26.3418682 26.8573482,27.3050668 C26.8573482,28.0060801 26.4983087,28.6248821 25.9524642,28.9900158 C26.9854966,30.9860328 28.6043497,33.5967778 29.6485905,35.2358082 C29.7603,35.2143294 29.8753717,35.2032209 29.993059,35.2032209 C30.2512237,35.2032209 30.4966857,35.2572868 30.7182367,35.3543101 C31.9466674,33.8000832 33.9697669,31.1382341 35.7978415,28.2604881 C33.4201859,24.4473184 31.446403,20.3993669 30.4249525,18.1959716 C30.2852222,18.2237455 30.1410088,18.2385583 29.993059,18.2385583 C29.6325252,18.2385583 29.2921664,18.1511631 28.9929047,17.9971106 Z M60.6320877,25.1405545 C60.4400522,26.2326241 59.9211074,27.4120887 59.2101271,28.5908128 C59.4712808,28.8674408 59.6311859,29.2388704 59.6311859,29.6473318 C59.6311859,29.9261816 59.5564639,30.1876265 59.4260739,30.4135206 C59.7832453,30.7671749 60.1859972,31.2037808 60.5472784,31.6848245 C60.8622318,32.1047658 61.1431867,32.5584062 61.3419473,33.0220449 C61.5313677,32.1188379 61.6221551,31.1319388 61.5900246,30.0524601 C61.5332359,28.1330988 61.1835366,26.5114738 60.6320877,25.1405545 Z M42.0969106,20.7322822 C41.7057409,21.1063039 41.1737199,21.3370124 40.5878986,21.3370124 C40.4066978,21.3370124 40.2307273,21.3147933 40.0626026,21.2733176 C39.6262259,22.7123755 38.8861039,24.3110405 37.9942962,25.925259 C37.5631499,26.7055206 37.0968843,27.4902255 36.6145534,28.261229 C37.1794521,29.1533261 37.7656467,30.028018 38.3660384,30.8582722 C38.6171045,30.6875556 38.9208497,30.5871994 39.2485059,30.5871994 C39.6258521,30.5871994 39.972189,30.7205137 40.2419354,30.9415943 C41.3272737,29.9032215 42.9984321,28.3723244 44.8022225,26.9717798 C44.6890188,26.7384786 44.6255048,26.4770338 44.6255048,26.2007763 C44.6255048,25.6752942 44.8556488,25.2023976 45.2214133,24.8757764 C44.4872689,23.7151981 43.3925913,22.1076453 42.2792323,20.9218853 C42.218334,20.8574498 42.1574352,20.7941254 42.0969106,20.7322822 Z M9.18520856,27.1924929 C10.0463802,27.1924929 10.745405,27.8853588 10.745405,28.7393132 C10.745405,29.5928974 10.0463802,30.2857634 9.18520856,30.2857634 C8.3236634,30.2857634 7.62463863,29.5928974 7.62463863,28.7393132 C7.62463863,27.8853588 8.3236634,27.1924929 9.18520856,27.1924929 Z M53.4415906,18.5781403 C53.5633876,18.9336461 53.654922,19.3398856 53.7199303,19.7631595 C53.808476,20.335672 53.8514411,20.9400319 53.8701216,21.4825484 C54.6027713,21.707702 55.1355395,22.3853848 55.1355395,23.1852729 C55.1355395,23.5574432 55.0204677,23.9033208 54.8232015,24.1892065 C55.7082842,25.4353284 56.8477955,27.1243509 57.5580286,28.1860547 C57.7186813,28.1308771 57.891289,28.100511 58.0706221,28.100511 C58.269756,28.100511 58.4599239,28.1375424 58.635147,28.2049405 C59.5691726,26.6544168 60.1676965,25.1157437 59.991726,23.8066673 C58.3605434,20.9196643 55.7523703,19.389138 53.4415906,18.5781403 Z M1.56056994,24.8535583 C2.42174156,24.8535583 3.12076639,25.5467947 3.12076639,26.4003788 C3.12076639,27.2539629 2.42174156,27.9468289 1.56056994,27.9468289 C0.699398389,27.9468289 0,27.2539629 0,26.4003788 C0,25.5467947 0.699398389,24.8535583 1.56056994,24.8535583 Z M36.4008466,10.3426265 C36.228612,10.4618691 36.0503999,10.5922212 35.8669575,10.7310906 C34.4576996,11.8002002 32.7809368,13.3896072 31.6320851,14.6712797 C31.9645983,15.0497451 32.1659742,15.5441206 32.1659742,16.0847854 C32.1659742,16.8831923 31.7266085,17.5808723 31.0750323,17.9526722 C32.0665939,20.0908918 33.9417438,23.9347978 36.2061955,27.607987 C36.6179138,26.9410434 37.0150618,26.2663235 37.3860563,25.5949358 C38.2696451,23.9955298 39.0067781,22.4150103 39.4237269,21.0015046 C38.8173577,20.6193351 38.4149794,19.9475779 38.4149794,19.1832404 C38.4149794,18.2648504 38.9963169,17.4797755 39.8134026,17.1701892 C39.5627101,15.5481939 39.1842429,13.2866588 38.7897103,11.6050424 C38.7575803,11.4680245 38.7247022,11.3354505 38.6910773,11.2073202 C38.5285568,11.2458334 38.3585644,11.2662009 38.184088,11.2662009 C37.4462082,11.2662009 36.7935109,10.9006965 36.4008466,10.3426265 Z M17.5107392,22.8219899 C18.7589712,22.8219899 19.7722022,23.8262938 19.7722022,25.0635278 C19.7722022,26.3007621 18.7589712,27.3050658 17.5107392,27.3050658 C16.2625074,27.3050658 15.2492764,26.3007621 15.2492764,25.0635278 C15.2492764,23.8262938 16.2625074,22.8219899 17.5107392,22.8219899 Z M48.951907,17.6756738 C48.9885208,18.3496536 49.038211,19.6502123 48.9343474,20.4538033 C48.725499,22.0672811 48.0903617,23.6748343 47.5508684,24.812082 C47.6240961,24.8702221 47.6924668,24.9342874 47.7556069,25.0031665 C49.1424482,24.2940067 50.52107,23.8729543 51.5806287,23.5681823 C51.5533554,23.4448661 51.5387845,23.3167361 51.5387845,23.1852728 C51.5387845,22.2561437 52.2579841,21.4921764 53.1740766,21.4099656 C53.1628683,21.130005 53.1445614,20.834491 53.1165408,20.5374955 C53.0369615,19.6931693 52.8845287,18.8314379 52.561356,18.297809 C50.9454913,17.8337999 49.5773305,17.7090025 48.951907,17.6756738 Z M40.2169057,9.87454392 C40.0484074,10.3155933 39.7379373,10.6877634 39.3407894,10.9358769 C39.8317135,12.6504518 40.2546403,15.2163891 40.5184091,17.0305795 C40.5415729,17.0298387 40.5647369,17.0294684 40.5879006,17.0294684 C41.7871898,17.0294684 42.7608181,17.9945183 42.7608181,19.1832414 C42.7608181,19.5409688 42.6726462,19.8783288 42.5164771,20.1753246 C42.6068908,20.2653123 42.6969309,20.357892 42.7865972,20.4538044 C43.9335812,21.674744 45.0618839,23.3322902 45.8150823,24.5232347 C46.0052498,24.4550963 46.2103621,24.418435 46.4240677,24.418435 C46.6336623,24.418435 46.8350382,24.453985 47.0218439,24.5195314 C47.5224815,23.4419042 48.0481512,21.8991575 48.2465378,20.3660384 C48.3690818,19.4183935 48.2708229,17.7286304 48.2528896,17.4416333 C44.9965022,12.5849053 42.0210698,10.6466581 40.2169057,9.87454392 Z M13.9756396,16.3943724 C14.6784006,16.3943724 15.2492771,16.9598488 15.2492771,17.6567884 C15.2492771,18.3533575 14.6784006,18.9192042 13.9756396,18.9192042 C13.2725051,18.9192042 12.7016286,18.3533575 12.7016286,17.6567884 C12.7016286,16.9598488 13.2725051,16.3943724 13.9756396,16.3943724 Z M22.5152512,12.4134473 C23.7145404,12.4134473 24.6881685,13.3784975 24.6881685,14.5668498 C24.6881685,15.7555722 23.7145404,16.7206223 22.5152512,16.7206223 C21.3159623,16.7206223 20.342334,15.7555722 20.342334,14.5668498 C20.342334,13.3784975 21.3159623,12.4134473 22.5152512,12.4134473 Z M42.7854737,7.62782135 C41.8503271,7.6130086 40.9402125,7.90815249 40.1836517,8.26884272 C40.2953612,8.5280657 40.357007,8.81321096 40.357007,9.11279874 C40.357007,9.14538665 40.3562598,9.17834503 40.3547653,9.2109331 C42.0453519,9.89972562 44.6228886,11.494317 47.4817545,15.1863929 C46.6897007,13.2348143 45.2217861,10.296707 42.7854737,7.62782135 Z M22.5376646,5.71660709 C23.3988362,5.71660709 24.097861,6.40984335 24.097861,7.26342746 C24.097861,8.11701163 23.3988362,8.80987762 22.5376646,8.80987762 C21.6761193,8.80987762 20.9770946,8.11701163 20.9770946,7.26342746 C20.9770946,6.40984335 21.6761193,5.71660709 22.5376646,5.71660709 Z M34.090816,2.11414862 C34.0478509,2.33930229 33.9622941,2.54964321 33.8423652,2.73628372 C34.5454998,3.28139256 35.4440324,4.04906286 36.3328512,5.00559578 C36.8435765,5.55514845 37.3617738,6.32874383 37.7697562,6.99790955 C37.9038825,6.97235755 38.0424919,6.95902596 38.1840902,6.95902596 C38.835293,6.95902596 39.4196195,7.24343045 39.8182616,7.6937379 C40.5045834,7.35971049 41.3134498,7.06715895 42.1619185,6.97235755 C40.1276109,4.92375526 37.4839446,3.1028991 34.090816,2.11414862 Z" id="Fill-13"></path>
            </g>
        </g>
    </g>
</svg>